<svg width="52" height="11" viewBox="0 0 52 11" fill="none" xmlns="http://www.w3.org/2000/svg">
<path d="M0.910156 10V1.27273H4.6772C5.32493 1.27273 5.89169 1.39062 6.37749 1.62642C6.86328 1.86222 7.24112 2.2017 7.51101 2.64489C7.78089 3.08807 7.91584 3.61932 7.91584 4.23864C7.91584 4.86364 7.77663 5.39062 7.49822 5.8196C7.22266 6.24858 6.83487 6.57244 6.33487 6.79119C5.83771 7.00994 5.25675 7.11932 4.59197 7.11932H2.34197V5.27841H4.1147C4.39311 5.27841 4.63033 5.24432 4.82635 5.17614C5.02521 5.10511 5.1772 4.9929 5.28232 4.83949C5.39027 4.68608 5.44425 4.4858 5.44425 4.23864C5.44425 3.98864 5.39027 3.78551 5.28232 3.62926C5.1772 3.47017 5.02521 3.35369 4.82635 3.27983C4.63033 3.20312 4.39311 3.16477 4.1147 3.16477H3.27947V10H0.910156ZM6.02379 5.99432L8.20561 10H5.63175L3.50107 5.99432H6.02379ZM11.9556 10.1193C11.2567 10.1193 10.6545 9.9858 10.1488 9.71875C9.64595 9.44886 9.25817 9.0625 8.98544 8.55966C8.71555 8.05398 8.58061 7.44886 8.58061 6.74432C8.58061 6.06818 8.71697 5.47727 8.9897 4.97159C9.26243 4.46591 9.64737 4.07244 10.1445 3.79119C10.6417 3.50994 11.2283 3.36932 11.9045 3.36932C12.3988 3.36932 12.8462 3.44602 13.2468 3.59943C13.6474 3.75284 13.9897 3.97585 14.2738 4.26847C14.5579 4.55824 14.7766 4.91051 14.93 5.32528C15.0835 5.74006 15.1602 6.20739 15.1602 6.72727V7.27273H9.31357V5.97727H12.9954C12.9925 5.78977 12.9442 5.625 12.8505 5.48295C12.7596 5.33807 12.636 5.22585 12.4798 5.14631C12.3263 5.06392 12.1516 5.02273 11.9556 5.02273C11.7653 5.02273 11.5906 5.06392 11.4315 5.14631C11.2724 5.22585 11.1445 5.33665 11.0479 5.47869C10.9542 5.62074 10.9045 5.78693 10.8988 5.97727V7.375C10.8988 7.58523 10.9428 7.77273 11.0309 7.9375C11.119 8.10227 11.2454 8.23153 11.4102 8.32528C11.5749 8.41903 11.7738 8.46591 12.0067 8.46591C12.1687 8.46591 12.3164 8.44318 12.4499 8.39773C12.5863 8.35227 12.7028 8.28693 12.7994 8.2017C12.896 8.11364 12.967 8.00852 13.0124 7.88636H15.1602C15.0863 8.34091 14.9116 8.7358 14.636 9.07102C14.3604 9.40341 13.9954 9.66193 13.5408 9.84659C13.0891 10.0284 12.5607 10.1193 11.9556 10.1193Z" fill="#58C4DC"/>
<path d="M18.353 10H15.7962L18.6768 1.27273H21.9155L24.7962 10H22.2393L20.3303 3.67614H20.2621L18.353 10ZM17.8757 6.55682H22.6825V8.32955H17.8757V6.55682ZM29.9151 7.13636V3.45455H32.2674V10H30.0344V8.75568H29.9663C29.8242 9.1733 29.5756 9.5 29.2205 9.7358C28.8654 9.96875 28.4435 10.0852 27.9549 10.0852C27.4975 10.0852 27.0969 9.98011 26.7532 9.76989C26.4123 9.55966 26.1467 9.26989 25.9563 8.90057C25.7688 8.53125 25.6737 8.10795 25.6708 7.63068V3.45455H28.0231V7.13636C28.0259 7.46023 28.1083 7.71449 28.2702 7.89915C28.435 8.08381 28.6651 8.17614 28.9606 8.17614C29.1566 8.17614 29.3256 8.13494 29.4677 8.05256C29.6126 7.96733 29.7234 7.84801 29.8001 7.6946C29.8796 7.53835 29.918 7.35227 29.9151 7.13636ZM35.8331 10.0852C35.3672 10.0852 34.9382 9.96307 34.5462 9.71875C34.157 9.47443 33.8445 9.10369 33.6087 8.60653C33.3757 8.10937 33.2592 7.48295 33.2592 6.72727C33.2592 5.9375 33.3814 5.29545 33.6257 4.80114C33.8729 4.30682 34.1911 3.9446 34.5803 3.71449C34.9723 3.48438 35.3842 3.36932 35.8161 3.36932C36.1399 3.36932 36.424 3.42614 36.6683 3.53977C36.9126 3.65057 37.1172 3.79972 37.282 3.98722C37.4467 4.17187 37.5717 4.375 37.657 4.59659H37.6911V1.27273H40.0433V10H37.7081V8.92614H37.657C37.5661 9.14773 37.4354 9.34659 37.2649 9.52273C37.0973 9.69602 36.8928 9.83381 36.6513 9.93608C36.4126 10.0355 36.1399 10.0852 35.8331 10.0852ZM36.7024 8.27841C36.9183 8.27841 37.103 8.21591 37.2564 8.09091C37.4126 7.96307 37.532 7.78409 37.6143 7.55398C37.6996 7.32102 37.7422 7.04545 37.7422 6.72727C37.7422 6.40341 37.6996 6.12642 37.6143 5.89631C37.532 5.66335 37.4126 5.4858 37.2564 5.36364C37.103 5.23864 36.9183 5.17614 36.7024 5.17614C36.4865 5.17614 36.3018 5.23864 36.1484 5.36364C35.9979 5.4858 35.8814 5.66335 35.799 5.89631C35.7195 6.12642 35.6797 6.40341 35.6797 6.72727C35.6797 7.05114 35.7195 7.32955 35.799 7.5625C35.8814 7.79261 35.9979 7.97017 36.1484 8.09517C36.3018 8.21733 36.4865 8.27841 36.7024 8.27841ZM41.1982 10V3.45455H43.5504V10H41.1982ZM42.3743 2.77273C42.0561 2.77273 41.7834 2.66761 41.5561 2.45739C41.3288 2.24716 41.2152 1.99432 41.2152 1.69886C41.2152 1.40341 41.3288 1.15057 41.5561 0.940341C41.7834 0.730114 42.0561 0.625 42.3743 0.625C42.6953 0.625 42.968 0.730114 43.1925 0.940341C43.4197 1.15057 43.5334 1.40341 43.5334 1.69886C43.5334 1.99432 43.4197 2.24716 43.1925 2.45739C42.968 2.66761 42.6953 2.77273 42.3743 2.77273ZM47.9023 10.1193C47.1921 10.1193 46.5842 9.97869 46.0785 9.69744C45.5728 9.41335 45.185 9.01847 44.9151 8.51278C44.6452 8.00426 44.5103 7.41477 44.5103 6.74432C44.5103 6.07386 44.6452 5.4858 44.9151 4.98011C45.185 4.47159 45.5728 4.0767 46.0785 3.79545C46.5842 3.51136 47.1921 3.36932 47.9023 3.36932C48.6126 3.36932 49.2205 3.51136 49.7262 3.79545C50.2319 4.0767 50.6197 4.47159 50.8896 4.98011C51.1594 5.4858 51.2944 6.07386 51.2944 6.74432C51.2944 7.41477 51.1594 8.00426 50.8896 8.51278C50.6197 9.01847 50.2319 9.41335 49.7262 9.69744C49.2205 9.97869 48.6126 10.1193 47.9023 10.1193ZM47.9194 8.38068C48.1183 8.38068 48.2901 8.31392 48.435 8.1804C48.5799 8.04687 48.6921 7.85653 48.7717 7.60938C48.8512 7.36222 48.891 7.06818 48.891 6.72727C48.891 6.38352 48.8512 6.08949 48.7717 5.84517C48.6921 5.59801 48.5799 5.40767 48.435 5.27415C48.2901 5.14062 48.1183 5.07386 47.9194 5.07386C47.7092 5.07386 47.5288 5.14062 47.3782 5.27415C47.2276 5.40767 47.1126 5.59801 47.033 5.84517C46.9535 6.08949 46.9137 6.38352 46.9137 6.72727C46.9137 7.06818 46.9535 7.36222 47.033 7.60938C47.1126 7.85653 47.2276 8.04687 47.3782 8.1804C47.5288 8.31392 47.7092 8.38068 47.9194 8.38068Z" fill="white"/>
</svg>
