<svg xmlns="http://www.w3.org/2000/svg" version="1.1" xmlns:xlink="http://www.w3.org/1999/xlink" xmlns:svgjs="http://svgjs.dev/svgjs" width="1920" height="560" preserveAspectRatio="none" viewBox="0 0 1920 560"><g mask="url(&quot;#SvgjsMask1161&quot;)" fill="none"><g transform="translate(0, 280)" stroke-linecap="round"><path d="M5 99.27 L5 460.73" stroke-width="7.5" stroke="rgba(255, 255, 255, 1)"></path><path d="M15 144.72 L15 415.27" stroke-width="7.5" stroke="rgba(255, 255, 255, 1)"></path><path d="M25 18.99 L25 541.01" stroke-width="7.5" stroke="rgba(255, 255, 255, 1)"></path><path d="M35 12.64 L35 547.36" stroke-width="7.5" stroke="rgba(255, 255, 255, 1)"></path><path d="M45 186.44 L45 373.56" stroke-width="7.5" stroke="rgba(255, 255, 255, 1)"></path><path d="M55 233.27 L55 326.73" stroke-width="7.5" stroke="rgba(255, 255, 255, 1)"></path><path d="M65 85.19 L65 474.81" stroke-width="7.5" stroke="rgba(255, 255, 255, 1)"></path><path d="M75 48.87 L75 511.13" stroke-width="7.5" stroke="rgba(255, 255, 255, 1)"></path><path d="M85 103.13 L85 456.87" stroke-width="7.5" stroke="rgba(255, 255, 255, 1)"></path><path d="M95 118.1 L95 441.9" stroke-width="7.5" stroke="rgba(255, 255, 255, 1)"></path><path d="M105 86.76 L105 473.24" stroke-width="7.5" stroke="rgba(255, 255, 255, 1)"></path><path d="M115 53.29 L115 506.71" stroke-width="7.5" stroke="rgba(255, 255, 255, 1)"></path><path d="M125 66.69 L125 493.31" stroke-width="7.5" stroke="rgba(255, 255, 255, 1)"></path><path d="M135 193.3 L135 366.7" stroke-width="7.5" stroke="rgba(255, 255, 255, 1)"></path><path d="M145 61.62 L145 498.38" stroke-width="7.5" stroke="rgba(255, 255, 255, 1)"></path><path d="M155 247.49 L155 312.51" stroke-width="7.5" stroke="rgba(255, 255, 255, 1)"></path><path d="M165 145.83 L165 414.17" stroke-width="7.5" stroke="rgba(255, 255, 255, 1)"></path><path d="M175 142.4 L175 417.61" stroke-width="7.5" stroke="rgba(255, 255, 255, 1)"></path><path d="M185 84.55 L185 475.45" stroke-width="7.5" stroke="rgba(255, 255, 255, 1)"></path><path d="M195 52.37 L195 507.63" stroke-width="7.5" stroke="rgba(255, 255, 255, 1)"></path><path d="M205 158.24 L205 401.76" stroke-width="7.5" stroke="rgba(255, 255, 255, 1)"></path><path d="M215 186.66 L215 373.34" stroke-width="7.5" stroke="rgba(255, 255, 255, 1)"></path><path d="M225 246.75 L225 313.25" stroke-width="7.5" stroke="rgba(255, 255, 255, 1)"></path><path d="M235 220 L235 340" stroke-width="7.5" stroke="rgba(255, 255, 255, 1)"></path><path d="M245 12.85 L245 547.15" stroke-width="7.5" stroke="rgba(255, 255, 255, 1)"></path><path d="M255 184 L255 376" stroke-width="7.5" stroke="rgba(255, 255, 255, 1)"></path><path d="M265 156.68 L265 403.32" stroke-width="7.5" stroke="rgba(255, 255, 255, 1)"></path><path d="M275 143.62 L275 416.38" stroke-width="7.5" stroke="rgba(255, 255, 255, 1)"></path><path d="M285 39.77 L285 520.23" stroke-width="7.5" stroke="rgba(255, 255, 255, 1)"></path><path d="M295 171.28 L295 388.73" stroke-width="7.5" stroke="rgba(255, 255, 255, 1)"></path><path d="M305 87.4 L305 472.6" stroke-width="7.5" stroke="rgba(255, 255, 255, 1)"></path><path d="M315 100.01 L315 459.99" stroke-width="7.5" stroke="rgba(255, 255, 255, 1)"></path><path d="M325 35.41 L325 524.6" stroke-width="7.5" stroke="rgba(255, 255, 255, 1)"></path><path d="M335 109.48 L335 450.52" stroke-width="7.5" stroke="rgba(255, 255, 255, 1)"></path><path d="M345 248.98 L345 311.02" stroke-width="7.5" stroke="rgba(255, 255, 255, 1)"></path><path d="M355 64.94 L355 495.06" stroke-width="7.5" stroke="rgba(255, 255, 255, 1)"></path><path d="M365 239.9 L365 320.11" stroke-width="7.5" stroke="rgba(255, 255, 255, 1)"></path><path d="M375 173.93 L375 386.07" stroke-width="7.5" stroke="rgba(255, 255, 255, 1)"></path><path d="M385 90.53 L385 469.47" stroke-width="7.5" stroke="rgba(255, 255, 255, 1)"></path><path d="M395 218.35 L395 341.65" stroke-width="7.5" stroke="rgba(255, 255, 255, 1)"></path><path d="M405 231.91 L405 328.08" stroke-width="7.5" stroke="rgba(255, 255, 255, 1)"></path><path d="M415 59.09 L415 500.91" stroke-width="7.5" stroke="rgba(255, 255, 255, 1)"></path><path d="M425 140.47 L425 419.53" stroke-width="7.5" stroke="rgba(255, 255, 255, 1)"></path><path d="M435 236.68 L435 323.32" stroke-width="7.5" stroke="rgba(255, 255, 255, 1)"></path><path d="M445 194.63 L445 365.38" stroke-width="7.5" stroke="rgba(255, 255, 255, 1)"></path><path d="M455 238.9 L455 321.1" stroke-width="7.5" stroke="rgba(255, 255, 255, 1)"></path><path d="M465 142.69 L465 417.31" stroke-width="7.5" stroke="rgba(255, 255, 255, 1)"></path><path d="M475 250.33 L475 309.67" stroke-width="7.5" stroke="rgba(255, 255, 255, 1)"></path><path d="M485 232.8 L485 327.2" stroke-width="7.5" stroke="rgba(255, 255, 255, 1)"></path><path d="M495 44.46 L495 515.54" stroke-width="7.5" stroke="rgba(255, 255, 255, 1)"></path><path d="M505 193.3 L505 366.7" stroke-width="7.5" stroke="rgba(255, 255, 255, 1)"></path><path d="M515 202.42 L515 357.58" stroke-width="7.5" stroke="rgba(255, 255, 255, 1)"></path><path d="M525 175.81 L525 384.19" stroke-width="7.5" stroke="rgba(255, 255, 255, 1)"></path><path d="M535 24.78 L535 535.22" stroke-width="7.5" stroke="rgba(255, 255, 255, 1)"></path><path d="M545 118.13 L545 441.87" stroke-width="7.5" stroke="rgba(255, 255, 255, 1)"></path><path d="M555 29.44 L555 530.56" stroke-width="7.5" stroke="rgba(255, 255, 255, 1)"></path><path d="M565 183.56 L565 376.44" stroke-width="7.5" stroke="rgba(255, 255, 255, 1)"></path><path d="M575 60.31 L575 499.69" stroke-width="7.5" stroke="rgba(255, 255, 255, 1)"></path><path d="M585 211.09 L585 348.91" stroke-width="7.5" stroke="rgba(255, 255, 255, 1)"></path><path d="M595 19.83 L595 540.16" stroke-width="7.5" stroke="rgba(255, 255, 255, 1)"></path><path d="M605 119.93 L605 440.07" stroke-width="7.5" stroke="rgba(255, 255, 255, 1)"></path><path d="M615 139.88 L615 420.12" stroke-width="7.5" stroke="rgba(255, 255, 255, 1)"></path><path d="M625 229.09 L625 330.92" stroke-width="7.5" stroke="rgba(255, 255, 255, 1)"></path><path d="M635 6.68 L635 553.32" stroke-width="7.5" stroke="rgba(255, 255, 255, 1)"></path><path d="M645 205.35 L645 354.65" stroke-width="7.5" stroke="rgba(255, 255, 255, 1)"></path><path d="M655 9.42 L655 550.58" stroke-width="7.5" stroke="rgba(255, 255, 255, 1)"></path><path d="M665 124.79 L665 435.21" stroke-width="7.5" stroke="rgba(255, 255, 255, 1)"></path><path d="M675 98.04 L675 461.96" stroke-width="7.5" stroke="rgba(255, 255, 255, 1)"></path><path d="M685 241.85 L685 318.15" stroke-width="7.5" stroke="rgba(255, 255, 255, 1)"></path><path d="M695 32.49 L695 527.51" stroke-width="7.5" stroke="rgba(255, 255, 255, 1)"></path><path d="M705 135.84 L705 424.15" stroke-width="7.5" stroke="rgba(255, 255, 255, 1)"></path><path d="M715 115.49 L715 444.51" stroke-width="7.5" stroke="rgba(255, 255, 255, 1)"></path><path d="M725 155.31 L725 404.69" stroke-width="7.5" stroke="rgba(255, 255, 255, 1)"></path><path d="M735 158.08 L735 401.92" stroke-width="7.5" stroke="rgba(255, 255, 255, 1)"></path><path d="M745 231.82 L745 328.18" stroke-width="7.5" stroke="rgba(255, 255, 255, 1)"></path><path d="M755 125.69 L755 434.31" stroke-width="7.5" stroke="rgba(255, 255, 255, 1)"></path><path d="M765 243.5 L765 316.5" stroke-width="7.5" stroke="rgba(255, 255, 255, 1)"></path><path d="M775 172.05 L775 387.95" stroke-width="7.5" stroke="rgba(255, 255, 255, 1)"></path><path d="M785 59.38 L785 500.63" stroke-width="7.5" stroke="rgba(255, 255, 255, 1)"></path><path d="M795 9.8 L795 550.2" stroke-width="7.5" stroke="rgba(255, 255, 255, 1)"></path><path d="M805 189.79 L805 370.21" stroke-width="7.5" stroke="rgba(255, 255, 255, 1)"></path><path d="M815 65.38 L815 494.63" stroke-width="7.5" stroke="rgba(255, 255, 255, 1)"></path><path d="M825 22.46 L825 537.54" stroke-width="7.5" stroke="rgba(255, 255, 255, 1)"></path><path d="M835 54.7 L835 505.3" stroke-width="7.5" stroke="rgba(255, 255, 255, 1)"></path><path d="M845 233.19 L845 326.81" stroke-width="7.5" stroke="rgba(255, 255, 255, 1)"></path><path d="M855 84.46 L855 475.54" stroke-width="7.5" stroke="rgba(255, 255, 255, 1)"></path><path d="M865 224.59 L865 335.41" stroke-width="7.5" stroke="rgba(255, 255, 255, 1)"></path><path d="M875 39.1 L875 520.89" stroke-width="7.5" stroke="rgba(255, 255, 255, 1)"></path><path d="M885 144.65 L885 415.36" stroke-width="7.5" stroke="rgba(255, 255, 255, 1)"></path><path d="M895 57.69 L895 502.31" stroke-width="7.5" stroke="rgba(255, 255, 255, 1)"></path><path d="M905 216.2 L905 343.8" stroke-width="7.5" stroke="rgba(255, 255, 255, 1)"></path><path d="M915 13.82 L915 546.17" stroke-width="7.5" stroke="rgba(255, 255, 255, 1)"></path><path d="M925 246.27 L925 313.73" stroke-width="7.5" stroke="rgba(255, 255, 255, 1)"></path><path d="M935 33.54 L935 526.46" stroke-width="7.5" stroke="rgba(255, 255, 255, 1)"></path><path d="M945 74.28 L945 485.72" stroke-width="7.5" stroke="rgba(255, 255, 255, 1)"></path><path d="M955 95.18 L955 464.82" stroke-width="7.5" stroke="rgba(255, 255, 255, 1)"></path><path d="M965 205.55 L965 354.45" stroke-width="7.5" stroke="rgba(255, 255, 255, 1)"></path><path d="M975 124.31 L975 435.69" stroke-width="7.5" stroke="rgba(255, 255, 255, 1)"></path><path d="M985 205.1 L985 354.9" stroke-width="7.5" stroke="rgba(255, 255, 255, 1)"></path><path d="M995 12.11 L995 547.89" stroke-width="7.5" stroke="rgba(255, 255, 255, 1)"></path><path d="M1005 107.71 L1005 452.29" stroke-width="7.5" stroke="rgba(255, 255, 255, 1)"></path><path d="M1015 187.91 L1015 372.09" stroke-width="7.5" stroke="rgba(255, 255, 255, 1)"></path><path d="M1025 205.36 L1025 354.64" stroke-width="7.5" stroke="rgba(255, 255, 255, 1)"></path><path d="M1035 196.32 L1035 363.68" stroke-width="7.5" stroke="rgba(255, 255, 255, 1)"></path><path d="M1045 221.74 L1045 338.26" stroke-width="7.5" stroke="rgba(255, 255, 255, 1)"></path><path d="M1055 223.76 L1055 336.24" stroke-width="7.5" stroke="rgba(255, 255, 255, 1)"></path><path d="M1065 238.64 L1065 321.36" stroke-width="7.5" stroke="rgba(255, 255, 255, 1)"></path><path d="M1075 166.31 L1075 393.69" stroke-width="7.5" stroke="rgba(255, 255, 255, 1)"></path><path d="M1085 68.57 L1085 491.43" stroke-width="7.5" stroke="rgba(255, 255, 255, 1)"></path><path d="M1095 211.6 L1095 348.4" stroke-width="7.5" stroke="rgba(255, 255, 255, 1)"></path><path d="M1105 242.53 L1105 317.47" stroke-width="7.5" stroke="rgba(255, 255, 255, 1)"></path><path d="M1115 138.41 L1115 421.6" stroke-width="7.5" stroke="rgba(255, 255, 255, 1)"></path><path d="M1125 11.17 L1125 548.83" stroke-width="7.5" stroke="rgba(255, 255, 255, 1)"></path><path d="M1135 244.37 L1135 315.63" stroke-width="7.5" stroke="rgba(255, 255, 255, 1)"></path><path d="M1145 205.37 L1145 354.63" stroke-width="7.5" stroke="rgba(255, 255, 255, 1)"></path><path d="M1155 59.62 L1155 500.38" stroke-width="7.5" stroke="rgba(255, 255, 255, 1)"></path><path d="M1165 130.44 L1165 429.56" stroke-width="7.5" stroke="rgba(255, 255, 255, 1)"></path><path d="M1175 223.32 L1175 336.68" stroke-width="7.5" stroke="rgba(255, 255, 255, 1)"></path><path d="M1185 20.76 L1185 539.24" stroke-width="7.5" stroke="rgba(255, 255, 255, 1)"></path><path d="M1195 234.76 L1195 325.24" stroke-width="7.5" stroke="rgba(255, 255, 255, 1)"></path><path d="M1205 213.8 L1205 346.2" stroke-width="7.5" stroke="rgba(255, 255, 255, 1)"></path><path d="M1215 99.63 L1215 460.37" stroke-width="7.5" stroke="rgba(255, 255, 255, 1)"></path><path d="M1225 85.19 L1225 474.81" stroke-width="7.5" stroke="rgba(255, 255, 255, 1)"></path><path d="M1235 37.07 L1235 522.93" stroke-width="7.5" stroke="rgba(255, 255, 255, 1)"></path><path d="M1245 219.29 L1245 340.71" stroke-width="7.5" stroke="rgba(255, 255, 255, 1)"></path><path d="M1255 32.09 L1255 527.91" stroke-width="7.5" stroke="rgba(255, 255, 255, 1)"></path><path d="M1265 33.96 L1265 526.04" stroke-width="7.5" stroke="rgba(255, 255, 255, 1)"></path><path d="M1275 233.86 L1275 326.14" stroke-width="7.5" stroke="rgba(255, 255, 255, 1)"></path><path d="M1285 84.46 L1285 475.54" stroke-width="7.5" stroke="rgba(255, 255, 255, 1)"></path><path d="M1295 10.07 L1295 549.93" stroke-width="7.5" stroke="rgba(255, 255, 255, 1)"></path><path d="M1305 188.74 L1305 371.26" stroke-width="7.5" stroke="rgba(255, 255, 255, 1)"></path><path d="M1315 227.5 L1315 332.5" stroke-width="7.5" stroke="rgba(255, 255, 255, 1)"></path><path d="M1325 134.33 L1325 425.67" stroke-width="7.5" stroke="rgba(255, 255, 255, 1)"></path><path d="M1335 167.69 L1335 392.31" stroke-width="7.5" stroke="rgba(255, 255, 255, 1)"></path><path d="M1345 149.92 L1345 410.08" stroke-width="7.5" stroke="rgba(255, 255, 255, 1)"></path><path d="M1355 148.51 L1355 411.49" stroke-width="7.5" stroke="rgba(255, 255, 255, 1)"></path><path d="M1365 181.76 L1365 378.24" stroke-width="7.5" stroke="rgba(255, 255, 255, 1)"></path><path d="M1375 94.57 L1375 465.43" stroke-width="7.5" stroke="rgba(255, 255, 255, 1)"></path><path d="M1385 233.61 L1385 326.39" stroke-width="7.5" stroke="rgba(255, 255, 255, 1)"></path><path d="M1395 128.5 L1395 431.5" stroke-width="7.5" stroke="rgba(255, 255, 255, 1)"></path><path d="M1405 65.9 L1405 494.1" stroke-width="7.5" stroke="rgba(255, 255, 255, 1)"></path><path d="M1415 30.52 L1415 529.48" stroke-width="7.5" stroke="rgba(255, 255, 255, 1)"></path><path d="M1425 232.04 L1425 327.96" stroke-width="7.5" stroke="rgba(255, 255, 255, 1)"></path><path d="M1435 25.21 L1435 534.79" stroke-width="7.5" stroke="rgba(255, 255, 255, 1)"></path><path d="M1445 83.75 L1445 476.25" stroke-width="7.5" stroke="rgba(255, 255, 255, 1)"></path><path d="M1455 230.78 L1455 329.23" stroke-width="7.5" stroke="rgba(255, 255, 255, 1)"></path><path d="M1465 244.6 L1465 315.4" stroke-width="7.5" stroke="rgba(255, 255, 255, 1)"></path><path d="M1475 80.06 L1475 479.94" stroke-width="7.5" stroke="rgba(255, 255, 255, 1)"></path><path d="M1485 212.8 L1485 347.2" stroke-width="7.5" stroke="rgba(255, 255, 255, 1)"></path><path d="M1495 30 L1495 530" stroke-width="7.5" stroke="rgba(255, 255, 255, 1)"></path><path d="M1505 97 L1505 463" stroke-width="7.5" stroke="rgba(255, 255, 255, 1)"></path><path d="M1515 120.5 L1515 439.5" stroke-width="7.5" stroke="rgba(255, 255, 255, 1)"></path><path d="M1525 83.1 L1525 476.89" stroke-width="7.5" stroke="rgba(255, 255, 255, 1)"></path><path d="M1535 106.62 L1535 453.38" stroke-width="7.5" stroke="rgba(255, 255, 255, 1)"></path><path d="M1545 75.97 L1545 484.03" stroke-width="7.5" stroke="rgba(255, 255, 255, 1)"></path><path d="M1555 116.63 L1555 443.37" stroke-width="7.5" stroke="rgba(255, 255, 255, 1)"></path><path d="M1565 188.51 L1565 371.49" stroke-width="7.5" stroke="rgba(255, 255, 255, 1)"></path><path d="M1575 228.49 L1575 331.51" stroke-width="7.5" stroke="rgba(255, 255, 255, 1)"></path><path d="M1585 139.51 L1585 420.49" stroke-width="7.5" stroke="rgba(255, 255, 255, 1)"></path><path d="M1595 94.91 L1595 465.1" stroke-width="7.5" stroke="rgba(255, 255, 255, 1)"></path><path d="M1605 206.5 L1605 353.5" stroke-width="7.5" stroke="rgba(255, 255, 255, 1)"></path><path d="M1615 92.76 L1615 467.24" stroke-width="7.5" stroke="rgba(255, 255, 255, 1)"></path><path d="M1625 141.41 L1625 418.59" stroke-width="7.5" stroke="rgba(255, 255, 255, 1)"></path><path d="M1635 89.5 L1635 470.5" stroke-width="7.5" stroke="rgba(255, 255, 255, 1)"></path><path d="M1645 148.53 L1645 411.47" stroke-width="7.5" stroke="rgba(255, 255, 255, 1)"></path><path d="M1655 68.22 L1655 491.78" stroke-width="7.5" stroke="rgba(255, 255, 255, 1)"></path><path d="M1665 243.25 L1665 316.75" stroke-width="7.5" stroke="rgba(255, 255, 255, 1)"></path><path d="M1675 168.19 L1675 391.81" stroke-width="7.5" stroke="rgba(255, 255, 255, 1)"></path><path d="M1685 125.98 L1685 434.02" stroke-width="7.5" stroke="rgba(255, 255, 255, 1)"></path><path d="M1695 116.29 L1695 443.71" stroke-width="7.5" stroke="rgba(255, 255, 255, 1)"></path><path d="M1705 93.84 L1705 466.16" stroke-width="7.5" stroke="rgba(255, 255, 255, 1)"></path><path d="M1715 61.28 L1715 498.72" stroke-width="7.5" stroke="rgba(255, 255, 255, 1)"></path><path d="M1725 106.78 L1725 453.23" stroke-width="7.5" stroke="rgba(255, 255, 255, 1)"></path><path d="M1735 248.62 L1735 311.38" stroke-width="7.5" stroke="rgba(255, 255, 255, 1)"></path><path d="M1745 113.91 L1745 446.09" stroke-width="7.5" stroke="rgba(255, 255, 255, 1)"></path><path d="M1755 173.94 L1755 386.06" stroke-width="7.5" stroke="rgba(255, 255, 255, 1)"></path><path d="M1765 96.13 L1765 463.87" stroke-width="7.5" stroke="rgba(255, 255, 255, 1)"></path><path d="M1775 213.13 L1775 346.87" stroke-width="7.5" stroke="rgba(255, 255, 255, 1)"></path><path d="M1785 214.3 L1785 345.7" stroke-width="7.5" stroke="rgba(255, 255, 255, 1)"></path><path d="M1795 118.77 L1795 441.23" stroke-width="7.5" stroke="rgba(255, 255, 255, 1)"></path><path d="M1805 240.54 L1805 319.46" stroke-width="7.5" stroke="rgba(255, 255, 255, 1)"></path><path d="M1815 159.37 L1815 400.63" stroke-width="7.5" stroke="rgba(255, 255, 255, 1)"></path><path d="M1825 230.38 L1825 329.62" stroke-width="7.5" stroke="rgba(255, 255, 255, 1)"></path><path d="M1835 98.64 L1835 461.36" stroke-width="7.5" stroke="rgba(255, 255, 255, 1)"></path><path d="M1845 196.34 L1845 363.66" stroke-width="7.5" stroke="rgba(255, 255, 255, 1)"></path><path d="M1855 114.59 L1855 445.4" stroke-width="7.5" stroke="rgba(255, 255, 255, 1)"></path><path d="M1865 204.89 L1865 355.11" stroke-width="7.5" stroke="rgba(255, 255, 255, 1)"></path><path d="M1875 64.28 L1875 495.72" stroke-width="7.5" stroke="rgba(255, 255, 255, 1)"></path><path d="M1885 17.71 L1885 542.29" stroke-width="7.5" stroke="rgba(255, 255, 255, 1)"></path><path d="M1895 100.35 L1895 459.65" stroke-width="7.5" stroke="rgba(255, 255, 255, 1)"></path><path d="M1905 101.82 L1905 458.18" stroke-width="7.5" stroke="rgba(255, 255, 255, 1)"></path><path d="M1915 132.97 L1915 427.03" stroke-width="7.5" stroke="rgba(255, 255, 255, 1)"></path></g></g><defs><mask id="SvgjsMask1161"><rect width="1920" height="560" fill="#ffffff"></rect></mask></defs></svg>